<?xml version="1.0" encoding="UTF-8"?>
<svg width="33px" height="33px" viewBox="0 0 33 33" version="1.1" xmlns="http://www.w3.org/2000/svg" xmlns:xlink="http://www.w3.org/1999/xlink">
    <!-- Generator: sketchtool 51.3 (57544) - http://www.bohemiancoding.com/sketch -->
    <title>80DC6CA5-3424-4BCD-A6AA-11CFFC032CEA@1.5x</title>
    <desc>Created with sketchtool.</desc>
    <defs></defs>
    <g id="Page-1" stroke="none" stroke-width="1" fill="none" fill-rule="evenodd">
        <g id="Result" transform="translate(-372.000000, -288.000000)" fill="#1294EF">
            <g id="Check-in-Copy" transform="translate(372.000000, 288.000000)">
                <path d="M16.2113366,30.4230995 C8.37720818,30.4230995 2.02641707,24.0666999 2.02641707,16.2256531 C2.02641707,8.38562034 8.37720818,2.02820664 16.2113366,2.02820664 C24.0444518,2.02820664 30.3962561,8.38562034 30.3962561,16.2256531 C30.3962561,24.0666999 24.0444518,30.4230995 16.2113366,30.4230995 L16.2113366,30.4230995 Z M16.2113366,0 C7.25761275,0 0,7.26402207 0,16.2256531 C0,25.18627 7.25761275,32.4513062 16.2113366,32.4513062 C25.1650604,32.4513062 32.4226732,25.18627 32.4226732,16.2256531 C32.4226732,7.26402207 25.1650604,0 16.2113366,0 L16.2113366,0 Z" id="Fill-119"></path>
                <polygon id="Shape" points="14.4890125 8.75401226 12.853274 10.4035982 18.2278433 15.8236662 12.853274 21.2437342 14.4890125 22.8933201 21.4993202 15.8236662"></polygon>
            </g>
        </g>
    </g>
</svg>